.
 
http://www.scenetime.com    -   SceneTime [ We been having it ] !!!


How come you press harder on a remote control when you know the battery is dead? so you better seed to get speed ;)

        Seed back for speed


...................................NFO:.................................................                                                                
 @@@@@@@   @@@  @@@  @@@  @@@@@@@@  @@@@@@@   @@@@@@    @@@  @@@@@@@  @@@ @@@ 
 @@@@@@@@  @@@  @@@  @@@  @@@@@@@@  @@@@@@@@  @@@@@@@   @@@  @@@@@@@  @@@ @@@ 
 @@!  @@@  @@!  @@!  @@@  @@!       @@!  @@@  !@@       @@!    @@!    @@! !@@ 
 !@!  @!@  !@!  !@!  @!@  !@!       !@!  @!@  !@!       !@!    !@!    !@! @!! 
 @!@  !@!  !!@  @!@  !@!  @!!!:!    @!@!!@!   !!@@!!    !!@    @!!     !@!@!  
 !@!  !!!  !!!  !@!  !!!  !!!!!:    !!@!@!     !!@!!!   !!!    !!!      @!!!  
 !!:  !!!  !!:  :!:  !!:  !!:       !!: :!!        !:!  !!:    !!:      !!:   
 :!:  !:!  :!:   ::!!:!   :!:       :!:  !:!      !:!   :!:    :!:      :!:   
 :::: ::   ::    ::::     :: ::::   ::   :::  :::: ::    ::     ::       ::   
 :: :  :   :       :      : :: ::    :   : :  :: : :    :       :        :       


   
General
Complete name                    : C:\Users\dot sr nl 305 250924\Desktop\Slices Of Life 2011 DiVERSiTY\Slices Of Life DiVERSiTY.avi
Format                           : AVI
Format/Info                      : Audio Video Interleave
File size                        : 694 MiB
Duration                         : 1h 47mn
Overall bit rate                 : 902 Kbps
Encoder                          : usagi
IMDb                             : http://www.imdb.com/title/tt1584730/

Video
ID                               : 0
Format                           : MPEG-4 Visual
Format profile                   : Advanced Simple@L5
Format settings, BVOP            : 2
Format settings, QPel            : No
Format settings, GMC             : No warppoints
Format settings, Matrix          : Default (H.263)
Codec ID                         : XVID
Codec ID/Hint                    : XviD
Duration                         : 1h 47mn
Bit rate                         : 768 Kbps
Width                            : 656 pixels
Height                           : 336 pixels
Display aspect ratio             : 1.952
Frame rate                       : 23.976 fps
Color space                      : YUV
Chroma subsampling               : 4:2:0
Bit depth                        : 8 bits
Scan type                        : Progressive
Compression mode                 : Lossy
Bits/(Pixel*Frame)               : 0.145
Stream size                      : 591 MiB (85%)
Writing library                  : XviD 1.2.1 (UTC 2008-12-04)

Audio
ID                               : 1
Format                           : MPEG Audio
Format version                   : Version 1
Format profile                   : Layer 3
Mode                             : Joint stereo
Mode extension                   : MS Stereo
Codec ID                         : 55
Codec ID/Hint                    : MP3
Duration                         : 1h 47mn
Bit rate mode                    : Constant
Bit rate                         : 128 Kbps
Channel(s)                       : 2 channels
Sampling rate                    : 48.0 KHz
Compression mode                 : Lossy
Stream size                      : 98.5 MiB (14%)
Alignment                        : Aligned on interleaves
Interleave, duration             : 167 ms (4.00 video frames)
Interleave, preload duration     : 216 ms
Title                            : VTS_07_1 T80 2_0ch 192Kbps DELAY 0ms_new
Writing library                  : LAME3.98r
Encoding settings                : -m j -V 4 -q 2 -lowpass 17 -b 128

Plot
Sexual Parasites, Disembowelment, Zombies, Serial Killers, Demon Children, Violent Vixens, Rabid Office Workers and Angry Embryos all spring to life from the flesh covered sketch books featured in Anthony G. Sumner's (Gallery of Fear) SLICES OF LIFE.

Cast
Kaylee Williams ... Mira (segment "Sketcher")
Jack Guasta ... William Robert Moss (segment "W.O.R.M")
Toya Turner ... Vonda (segment "Amber Alert")
Deneen Melody ... Susan Ballard (segment "Pink Snapper")
Marv Blauvelt ... Tiny (segment "Sketcher")
Thurston Hill ... Lamont (segment "Amber Alert")
Galen Schloming ... Eric Ballard (segment "Pink Snapper") 

Greets:

To Everyone who makes p2p possible...... Thanks.